<svg xmlns="http://www.w3.org/2000/svg" xml:space="preserve" style="fill-rule:evenodd;clip-rule:evenodd;stroke-linejoin:round;stroke-miterlimit:2" viewBox="0 0 934 137"><path d="M0 0h933.837v136.302H0z" style="fill:none"/><path d="m33.305 135.709 11.249-19.483 11.253-19.493-.389-.225a17.493 17.493 0 0 1-1.185-.812c-4.737-3.465-7.631-8.741-7.956-14.504l-.065-1.128-.588-.003c-14.586-.017-44.104.086-44.159.159-.028.037 10.585 18.534 31.84 55.489ZM30.453 6.768c5.377 9.316 26.153 45.375 26.207 45.468.032.049.565-.182 1.191-.496 6.085-3.099 13.344-3.659 19.676-1.526 1.412.477 3.368 1.315 4.185 1.786l.518.3 14.928-25.856L112.078.601l-84.94.178c.066-.125.066-.13 0-.015-.04.069 1.457 2.764 3.315 6.004Zm56.497 99.759c17.701 31.102 16.958 29.814 17.153 29.753.309-.1 31.988-54.77 31.933-55.231l-.035-.276-21.442.127c-11.799.067-21.799.129-22.213.133l-.758.004-.095 1.314a19.793 19.793 0 0 1-1.672 6.622c-1.386 3.133-3.871 6.071-6.797 8.048l-1.072.727 4.998 8.779Z" style="fill:#454545;fill-rule:nonzero"/><circle cx="68.91" cy="74.462" r="27.901" style="fill:#f7f6f3"/><circle cx="68.91" cy="74.462" r="13.951" style="fill:#aaa55f"/><path d="M177.43 135.13V13.878h.586l11.519 121.252h14.254l11.715-121.252h.586V135.13h9.567V1.773h-18.158l-10.544 112.66h-.586L186.021 1.773h-18.159V135.13h9.568Z" style="fill:url(#a);fill-rule:nonzero"/><path d="M236.201 1.773h10.739V135.13h-10.739z" style="fill:url(#b);fill-rule:nonzero"/><path d="M267.051 135.13V33.989h.585l14.059 101.141h14.058V1.773h-9.568v101.14h-.585L271.541 1.773h-14.058V135.13h9.568Z" style="fill:url(#c);fill-rule:nonzero"/><path d="M323.283 136.302c11.716 0 17.378-5.077 17.378-17.378V1.773h-10.739v117.151c0 5.077-2.929 6.834-6.639 6.834-3.709 0-6.443-1.757-6.443-6.834V1.773h-10.739v117.151c0 12.301 5.272 17.378 17.182 17.378Z" style="fill:url(#d);fill-rule:nonzero"/><path d="M349.642 1.773v10.153h13.082V135.13h10.739V11.926h13.082V1.773h-36.903Z" style="fill:url(#e);fill-rule:nonzero"/><path d="M424.229 1.773h-28.507V135.13h28.507v-10.153h-17.768V71.283h16.206V61.129h-16.206V11.926h17.768V1.773Z" style="fill:url(#f);fill-rule:nonzero"/><path d="M449.221 136.302c11.325 0 17.182-5.077 17.182-17.378V93.932c0-14.449-2.928-19.135-10.934-27.14l-5.662-5.663c-5.077-5.076-7.42-9.372-7.42-19.134V17.783c0-4.49 2.343-6.833 6.639-6.833s6.443 2.343 6.443 6.833V50h10.739V17.979c0-12.301-5.857-17.378-17.182-17.378s-17.377 5.077-17.377 17.378V42.58c0 13.668 3.514 20.502 10.153 26.75l6.248 5.858c6.053 5.857 7.615 10.153 7.615 18.939v24.992c0 4.491-2.148 6.834-6.444 6.834-4.295 0-6.638-2.343-6.638-6.834V91.784h-10.739v27.14c0 12.301 6.053 17.378 17.377 17.378Z" style="fill:url(#g);fill-rule:nonzero"/><path d="M493.739 1.773v10.153h13.082V135.13h10.739V11.926h13.082V1.773h-36.903Z" style="fill:url(#h);fill-rule:nonzero"/><path d="M554.658 136.302c11.715 0 17.377-5.077 17.377-17.378V17.783c0-12.301-5.662-17.182-17.377-17.182-11.716 0-17.183 4.881-17.183 17.182v101.141c0 12.301 5.272 17.378 17.183 17.378Zm0-10.544c-3.71 0-6.444-1.757-6.444-6.834V17.979c0-5.077 2.734-7.029 6.444-7.029 3.709 0 6.638 1.952 6.638 7.029v100.945c0 5.077-2.929 6.834-6.638 6.834Z" style="fill:url(#i);fill-rule:nonzero"/><path d="M613.429 135.13V13.878h.585l11.52 121.252h14.254l11.715-121.252h.586V135.13h9.567V1.773h-18.159l-10.543 112.66h-.586L622.02 1.773h-18.159V135.13h9.568Z" style="fill:url(#j);fill-rule:nonzero"/><path d="M672.198 1.773h10.739V135.13h-10.739z" style="fill:url(#k);fill-rule:nonzero"/><path d="M693.479 1.773V135.13h18.746c10.542 0 15.424-5.857 15.424-17.573V19.15c0-14.058-4.882-17.377-15.424-17.377h-18.746Zm23.431 114.222c0 7.81-1.953 8.982-6.638 8.982h-6.054V11.926h6.054c4.685 0 6.638 2.148 6.638 8.591v95.478Z" style="fill:url(#l);fill-rule:nonzero"/><path d="M747.764 135.13V33.989h.583l14.061 101.141h14.054V1.773h-9.566v101.14h-.583L752.252 1.773h-14.054V135.13h9.566Z" style="fill:url(#m);fill-rule:nonzero"/><path d="M787.011 1.773h10.739V135.13h-10.739z" style="fill:url(#n);fill-rule:nonzero"/><path d="M842.848 17.979c0-12.301-5.858-17.378-17.18-17.378s-17.376 5.077-17.376 17.378v100.945c0 12.301 6.054 17.378 17.376 17.378 11.322 0 17.18-5.077 17.18-17.378V68.159h-18.156v10.153h7.417v40.807c0 4.491-2.143 6.834-6.441 6.834s-6.637-2.343-6.637-6.834V17.783c0-4.49 2.339-6.833 6.637-6.833s6.441 2.343 6.441 6.833v32.608h10.739V17.979Z" style="fill:url(#o);fill-rule:nonzero"/><path d="M877.017 62.691h-13.078V1.773H853.2V135.13h10.739V72.845h13.078v62.285h10.739V1.773h-10.739v60.918Z" style="fill:url(#p);fill-rule:nonzero"/><path d="M896.935 1.773v10.153h13.085V135.13h10.739V11.926h13.078V1.773h-36.902Z" style="fill:url(#q);fill-rule:nonzero"/><defs><radialGradient id="a" cx="0" cy="0" r="1" gradientTransform="scale(777.494) rotate(-9.876 1.114 -1.163)" gradientUnits="userSpaceOnUse"><stop offset="0" style="stop-color:#000;stop-opacity:1"/><stop offset="1" style="stop-color:#717171;stop-opacity:1"/></radialGradient><radialGradient id="b" cx="0" cy="0" r="1" gradientTransform="scale(777.494) rotate(-9.876 1.114 -1.163)" gradientUnits="userSpaceOnUse"><stop offset="0" style="stop-color:#000;stop-opacity:1"/><stop offset="1" style="stop-color:#717171;stop-opacity:1"/></radialGradient><radialGradient id="c" cx="0" cy="0" r="1" gradientTransform="scale(777.494) rotate(-9.876 1.114 -1.163)" gradientUnits="userSpaceOnUse"><stop offset="0" style="stop-color:#000;stop-opacity:1"/><stop offset="1" style="stop-color:#717171;stop-opacity:1"/></radialGradient><radialGradient id="d" cx="0" cy="0" r="1" gradientTransform="scale(777.494) rotate(-9.876 1.114 -1.163)" gradientUnits="userSpaceOnUse"><stop offset="0" style="stop-color:#000;stop-opacity:1"/><stop offset="1" style="stop-color:#717171;stop-opacity:1"/></radialGradient><radialGradient id="e" cx="0" cy="0" r="1" gradientTransform="scale(777.494) rotate(-9.876 1.114 -1.163)" gradientUnits="userSpaceOnUse"><stop offset="0" style="stop-color:#000;stop-opacity:1"/><stop offset="1" style="stop-color:#717171;stop-opacity:1"/></radialGradient><radialGradient id="f" cx="0" cy="0" r="1" gradientTransform="scale(777.494) rotate(-9.876 1.114 -1.163)" gradientUnits="userSpaceOnUse"><stop offset="0" style="stop-color:#000;stop-opacity:1"/><stop offset="1" style="stop-color:#717171;stop-opacity:1"/></radialGradient><radialGradient id="g" cx="0" cy="0" r="1" gradientTransform="scale(777.494) rotate(-9.876 1.114 -1.163)" gradientUnits="userSpaceOnUse"><stop offset="0" style="stop-color:#000;stop-opacity:1"/><stop offset="1" style="stop-color:#717171;stop-opacity:1"/></radialGradient><radialGradient id="h" cx="0" cy="0" r="1" gradientTransform="scale(777.494) rotate(-9.876 1.114 -1.163)" gradientUnits="userSpaceOnUse"><stop offset="0" style="stop-color:#000;stop-opacity:1"/><stop offset="1" style="stop-color:#717171;stop-opacity:1"/></radialGradient><radialGradient id="i" cx="0" cy="0" r="1" gradientTransform="scale(777.494) rotate(-9.876 1.114 -1.163)" gradientUnits="userSpaceOnUse"><stop offset="0" style="stop-color:#000;stop-opacity:1"/><stop offset="1" style="stop-color:#717171;stop-opacity:1"/></radialGradient><radialGradient id="j" cx="0" cy="0" r="1" gradientTransform="scale(777.494) rotate(-9.876 1.114 -1.163)" gradientUnits="userSpaceOnUse"><stop offset="0" style="stop-color:#000;stop-opacity:1"/><stop offset="1" style="stop-color:#717171;stop-opacity:1"/></radialGradient><radialGradient id="k" cx="0" cy="0" r="1" gradientTransform="scale(777.494) rotate(-9.876 1.114 -1.163)" gradientUnits="userSpaceOnUse"><stop offset="0" style="stop-color:#000;stop-opacity:1"/><stop offset="1" style="stop-color:#717171;stop-opacity:1"/></radialGradient><radialGradient id="l" cx="0" cy="0" r="1" gradientTransform="scale(777.494) rotate(-9.876 1.114 -1.163)" gradientUnits="userSpaceOnUse"><stop offset="0" style="stop-color:#000;stop-opacity:1"/><stop offset="1" style="stop-color:#717171;stop-opacity:1"/></radialGradient><radialGradient id="m" cx="0" cy="0" r="1" gradientTransform="scale(777.494) rotate(-9.876 1.114 -1.163)" gradientUnits="userSpaceOnUse"><stop offset="0" style="stop-color:#000;stop-opacity:1"/><stop offset="1" style="stop-color:#717171;stop-opacity:1"/></radialGradient><radialGradient id="n" cx="0" cy="0" r="1" gradientTransform="scale(777.494) rotate(-9.876 1.114 -1.163)" gradientUnits="userSpaceOnUse"><stop offset="0" style="stop-color:#000;stop-opacity:1"/><stop offset="1" style="stop-color:#717171;stop-opacity:1"/></radialGradient><radialGradient id="o" cx="0" cy="0" r="1" gradientTransform="scale(777.494) rotate(-9.876 1.114 -1.163)" gradientUnits="userSpaceOnUse"><stop offset="0" style="stop-color:#000;stop-opacity:1"/><stop offset="1" style="stop-color:#717171;stop-opacity:1"/></radialGradient><radialGradient id="p" cx="0" cy="0" r="1" gradientTransform="scale(777.494) rotate(-9.876 1.114 -1.163)" gradientUnits="userSpaceOnUse"><stop offset="0" style="stop-color:#000;stop-opacity:1"/><stop offset="1" style="stop-color:#717171;stop-opacity:1"/></radialGradient><radialGradient id="q" cx="0" cy="0" r="1" gradientTransform="scale(777.494) rotate(-9.876 1.114 -1.163)" gradientUnits="userSpaceOnUse"><stop offset="0" style="stop-color:#000;stop-opacity:1"/><stop offset="1" style="stop-color:#717171;stop-opacity:1"/></radialGradient></defs></svg>