<?xml version="1.0" standalone="no"?>
<!DOCTYPE svg PUBLIC "-//W3C//DTD SVG 20010904//EN"
 "http://www.w3.org/TR/2001/REC-SVG-20010904/DTD/svg10.dtd">
<svg version="1.0" xmlns="http://www.w3.org/2000/svg"
 width="900.000000pt" height="900.000000pt" viewBox="0 0 900.000000 900.000000"
 preserveAspectRatio="xMidYMid meet">
<metadata>
Created by potrace 1.11, written by Peter Selinger 2001-2013
</metadata>
<g transform="translate(0.000000,900.000000) scale(0.100000,-0.100000)"
fill="#000000" stroke="none">
<path d="M2375 8421 c3 -7 172 -298 376 -645 204 -347 380 -647 391 -666 11
-19 80 -137 154 -262 73 -125 142 -242 152 -260 11 -18 79 -134 152 -258 73
-124 141 -239 151 -256 76 -135 173 -294 178 -294 3 1 111 176 239 391 l233
390 -63 111 c-35 61 -73 127 -84 147 -12 20 -110 189 -219 376 -109 187 -206
354 -216 370 -10 17 -22 37 -26 45 -4 8 -26 47 -48 85 -23 39 -53 90 -67 115
-14 25 -74 128 -133 230 -60 102 -113 194 -119 205 -65 117 -110 185 -124 186
-10 1 -223 2 -475 3 -386 1 -456 -1 -452 -13z"/>
<path d="M5724 8432 c-12 -2 -29 -19 -42 -45 -12 -23 -33 -62 -48 -87 -49 -84
-325 -561 -343 -593 -10 -18 -69 -120 -131 -227 -62 -107 -121 -208 -130 -225
-9 -16 -92 -159 -184 -317 -91 -159 -166 -291 -166 -295 0 -3 -6 -14 -14 -22
-7 -9 -25 -36 -38 -61 -14 -25 -41 -72 -60 -105 -19 -33 -93 -161 -165 -285
-433 -751 -414 -720 -442 -720 -14 -1 -800 -2 -1746 -3 l-1719 -2 -49 -80
c-27 -44 -57 -93 -67 -110 -28 -49 -352 -588 -366 -610 l-14 -21 2217 1 2217
0 80 135 c43 74 88 151 100 171 11 20 73 125 136 233 63 108 126 216 139 239
40 69 44 77 361 618 168 287 316 540 329 563 36 62 155 267 231 396 37 63 77
131 87 150 11 19 64 109 117 199 53 90 96 165 96 166 0 2 18 33 41 70 22 37
49 82 58 99 17 29 264 451 385 657 31 53 56 100 56 105 0 8 -871 14 -926 6z"/>
<path d="M6754 8277 c-22 -39 -128 -225 -234 -412 -106 -187 -204 -360 -218
-385 -14 -25 -107 -189 -207 -365 -100 -176 -199 -351 -221 -390 -21 -38 -44
-79 -51 -90 -7 -11 -16 -27 -20 -35 -9 -19 -130 -230 -143 -250 -6 -8 -13 -22
-17 -30 -4 -8 -40 -73 -81 -145 -41 -71 -88 -155 -105 -185 -17 -30 -39 -68
-49 -85 -10 -16 -21 -37 -25 -45 -4 -8 -19 -35 -33 -60 -69 -117 -721 -1270
-726 -1283 -5 -13 204 -384 402 -715 24 -40 44 -75 44 -77 0 -3 16 -29 35 -59
19 -30 35 -58 35 -62 0 -4 6 -15 14 -23 7 -9 27 -41 43 -71 17 -30 142 -246
278 -480 136 -234 255 -438 265 -455 9 -16 180 -311 380 -655 199 -343 372
-640 382 -660 11 -19 24 -39 28 -45 4 -5 19 -30 32 -55 14 -25 56 -97 93 -160
37 -63 79 -135 92 -160 50 -89 86 -141 93 -133 6 6 231 402 336 588 12 22 45
80 73 128 28 49 51 90 51 92 0 2 -133 231 -296 507 -295 500 -317 538 -352
601 -11 17 -55 93 -99 167 -44 74 -119 203 -167 285 -49 83 -97 162 -107 177
-10 15 -19 30 -19 33 0 3 -34 62 -75 131 -41 69 -75 130 -75 135 0 5 -4 9 -10
9 -5 0 -10 4 -10 10 0 5 -26 53 -58 107 -54 90 -342 578 -382 648 -10 17 -36
61 -58 100 -33 56 -39 72 -29 85 7 8 17 24 23 35 31 57 240 424 256 450 10 17
21 37 25 45 4 8 69 124 145 258 76 134 180 316 230 405 50 89 99 176 108 192
49 85 102 178 121 212 12 21 60 106 107 188 47 83 113 200 147 260 35 61 137
241 227 400 91 160 176 310 190 335 14 25 49 87 78 138 60 106 61 85 -13 217
-256 455 -400 705 -406 705 -3 0 -24 -33 -47 -73z"/>
<path d="M2188 8268 c-13 -20 -446 -744 -454 -759 -2 -3 12 -31 31 -62 19 -31
45 -75 58 -99 28 -49 398 -686 444 -763 16 -27 32 -57 36 -65 4 -8 11 -22 17
-30 34 -53 90 -152 90 -160 0 -6 5 -10 10 -10 6 0 10 -4 10 -9 0 -5 87 -160
194 -343 l194 -333 471 0 c259 0 471 3 471 7 0 4 -21 42 -46 85 -46 77 -66
111 -102 176 -11 17 -162 275 -337 572 -175 297 -325 554 -335 570 -9 17 -93
159 -185 315 -171 291 -190 323 -225 386 -12 20 -49 84 -84 143 -35 58 -102
172 -150 254 -48 81 -88 147 -90 147 -2 0 -10 -10 -18 -22z"/>
<path d="M6335 5396 c-20 -33 -186 -317 -210 -361 -13 -22 -74 -128 -137 -235
-64 -107 -113 -197 -111 -200 2 -2 360 -4 796 -3 436 1 1127 3 1535 3 677 1
743 3 738 17 -5 13 -180 333 -338 618 -15 28 -42 78 -60 113 l-33 62 -315 1
c-173 0 -661 1 -1083 3 -769 2 -769 2 -782 -18z"/>
<path d="M3566 4413 c-1 -1 -802 -3 -1779 -3 -977 -1 -1777 -5 -1777 -8 0 -4
10 -23 22 -42 11 -19 29 -49 38 -65 9 -17 86 -147 170 -290 84 -143 173 -295
198 -338 l45 -78 836 5 c2768 19 2615 19 2627 -1 6 -10 22 -38 36 -63 27 -47
328 -561 668 -1140 112 -190 212 -361 223 -380 24 -43 283 -484 308 -525 10
-16 29 -48 41 -70 12 -22 27 -48 33 -57 5 -9 26 -45 46 -80 84 -145 375 -637
389 -656 15 -21 20 -22 488 -26 259 -2 472 0 472 4 0 4 -112 199 -249 433
-137 233 -256 437 -265 453 -9 16 -25 43 -36 61 -27 45 -429 731 -653 1113
-104 179 -201 342 -213 362 -13 21 -24 39 -24 42 0 2 -24 44 -54 93 -29 49
-64 109 -78 133 -14 25 -59 101 -100 170 -40 69 -183 312 -317 540 l-243 415
-425 0 c-233 0 -426 -1 -427 -2z"/>
<path d="M6583 4392 c-370 -1 -673 -5 -673 -10 1 -4 12 -25 25 -47 14 -22 28
-47 32 -55 4 -8 39 -73 78 -145 40 -71 89 -161 110 -200 21 -38 67 -121 102
-184 34 -62 63 -116 63 -120 0 -3 8 -16 18 -28 l17 -22 1077 -3 c592 -2 1079
0 1083 3 8 9 460 782 467 800 5 12 -106 14 -861 14 -476 0 -1169 -1 -1538 -3z"/>
<path d="M2741 3341 c-15 -22 -131 -217 -212 -357 -19 -32 -116 -196 -184
-312 -6 -9 -28 -48 -50 -85 -22 -38 -47 -81 -56 -95 -50 -83 -554 -941 -566
-962 -7 -14 -13 -28 -13 -32 0 -5 68 -128 151 -275 84 -148 161 -285 173 -306
11 -21 26 -46 31 -55 6 -9 30 -54 55 -99 25 -46 47 -83 51 -83 4 0 182 298
199 334 3 6 12 22 21 36 14 22 487 832 537 922 11 18 42 71 69 118 28 47 60
101 71 120 10 19 112 194 226 389 113 194 206 355 206 358 0 2 8 16 19 31 36
53 202 344 198 348 -3 4 -52 5 -577 19 -135 4 -264 8 -288 9 -36 2 -46 -2 -61
-23z"/>
<path d="M3755 3058 c-66 -112 -148 -252 -184 -313 -35 -60 -96 -164 -135
-230 -38 -66 -102 -174 -141 -240 -39 -66 -89 -151 -111 -188 -21 -38 -44 -76
-49 -85 -6 -9 -23 -39 -39 -67 -17 -27 -56 -95 -88 -150 -32 -55 -63 -107 -68
-115 -8 -13 -83 -142 -149 -254 -13 -23 -83 -143 -157 -268 -73 -125 -142
-242 -152 -260 -11 -18 -52 -88 -92 -156 -40 -68 -71 -125 -69 -127 3 -2 81
-6 174 -9 490 -16 596 -19 665 -20 l75 -1 66 110 c91 151 420 705 433 730 6
11 48 81 92 155 242 402 507 855 507 864 0 6 -22 52 -50 101 -202 364 -397
711 -402 718 -4 4 -61 -84 -126 -195z"/>
</g>
</svg>
