<svg height="260" width="260" xmlns="http://www.w3.org/2000/svg"><g fill="none" fill-rule="evenodd"><circle cx="130" cy="130" fill="#fff" r="128.5" stroke="#45464b" stroke-width="3"/><g fill="#5b625a" fill-rule="nonzero"><path d="m81.38 230.89 16.04-27.782 16.046-27.795-.557-.321c-.31-.179-1.066-.698-1.692-1.159-6.767-4.948-10.905-12.478-11.374-20.7l-.095-1.608-.84-.005c-20.825-.04-62.97.074-63.048.178-.04.054 15.132 26.45 45.52 79.191zM77.168 46.95c7.686 13.296 37.39 64.756 37.466 64.889.047.07.807-.258 1.701-.707 8.685-4.413 19.048-5.205 28.09-2.154 2.018.682 4.812 1.878 5.979 2.552l.74.427 21.284-36.866 21.275-36.85-121.275.162c.095-.179.095-.186 0-.021-.057.098 2.084 3.943 4.74 8.568zM110.462 134.402c-4.864 11.99.666 25.948 12.31 31.137 5.432 2.434 10.73 2.862 16.4 1.355 5.662-1.532 10.036-4.553 13.515-9.364 4.042-5.559 5.44-12.952 3.75-19.78-2.977-12.002-14.195-19.75-26.478-18.291-8.66 1.03-16.21 6.82-19.497 14.943zM157.941 189.319c25.307 44.386 24.244 42.548 24.523 42.461.441-.142 45.611-78.095 45.533-78.752l-.05-.394-30.615.157c-16.846.083-31.124.16-31.715.167l-1.081.004-.135 1.875a28.178 28.178 0 0 1-2.38 9.444c-1.975 4.467-5.521 8.656-9.696 11.473l-1.53 1.036z"/></g></g></svg>