<svg height="260" viewBox="0 0 260 260" width="260" xmlns="http://www.w3.org/2000/svg"><g fill="none" fill-rule="evenodd"><circle cx="130" cy="130" fill="#fff" r="128.5" stroke="#45464b" stroke-width="3"/><g fill="#5b625a" fill-rule="nonzero" transform="matrix(.5 -.8660254 -.8660254 -.5 158.32145075 275.31183255653)"><path d="m0 88.845136h32.0795517 32.0938666v.6433294c0 .3574053.0715742 1.2723627.1574632 2.0443581.9018348 8.3346905 5.3537494 15.6829425 12.2391864 20.2005445l1.3455948.886365-.4151303.729107c-10.3782575 18.056113-31.5499028 54.497153-31.6787363 54.512229-.0668026.009011-15.3407346-26.329633-45.8217961-79.015933z"/><path d="m157.190224 184.462195c-7.670845-13.304734-37.385876-64.758562-37.461825-64.891419-.037975-.075919.626579-.56939 1.462017-1.119799 8.164514-5.314302 14.031571-13.893103 15.911308-23.25007.417719-2.0877613.778477-5.1055255.778477-6.4530805v-.8540842h42.569393 42.550406l-60.777826 104.9467187c.20231.007159.208529.010738.018656.010738-.113923 0-2.373405-3.77695-5.050606-8.389004z"/><path d="m98.1019317 111.902998c-12.8163874-1.784087-22.1391225-13.5514693-20.8100156-26.2298746.6075917-5.9216504 2.8860605-10.7235015 7.025279-14.8800446 4.1582056-4.1375634 8.9619775-6.4151212 14.8670093-7.02247 6.8354066-.7212266 13.9366346 1.7651073 19.0062276 6.6428771 8.905016 8.5788012 10.006276 22.1682296 2.601252 32.0756061-5.221491 6.984511-14.012583 10.628603-22.6897523 9.413906z"/><path d="m74.282196 43.325966c-25.7862342-44.10961015-24.7261335-42.26994081-24.5112482-42.46805905.3438165-.31132865 90.4380532-.45284168 90.9681042-.05660521l.315165.24057215-15.443089 26.43463321c-8.495132 14.5475391-15.700952 26.8733237-16.001791 27.3827706l-.544376.9339859-1.690431-.8207755c-2.92244-1.4151303-6.045439-2.3066623-9.3689986-2.6604449-4.8564074-.5235982-10.2571909.4528417-14.7841076 2.6604449l-1.6617795.8066242z"/></g></g></svg>