<?xml version="1.0" standalone="no"?>
<!DOCTYPE svg PUBLIC "-//W3C//DTD SVG 20010904//EN"
 "http://www.w3.org/TR/2001/REC-SVG-20010904/DTD/svg10.dtd">
<svg version="1.0" xmlns="http://www.w3.org/2000/svg"
 width="260.000000pt" height="260.000000pt" viewBox="0 0 260.000000 260.000000"
 preserveAspectRatio="xMidYMid meet">
<metadata>
Created by potrace 1.14, written by Peter Selinger 2001-2017
</metadata>
<g transform="translate(0.000000,260.000000) scale(0.100000,-0.100000)"
fill="#000000" stroke="none">
<path d="M1132 2590 c-557 -79 -988 -483 -1108 -1041 -26 -118 -26 -380 0
-498 59 -273 167 -473 361 -666 193 -194 393 -302 666 -361 118 -26 380 -26
498 0 273 59 473 167 666 361 194 193 302 393 361 666 14 62 18 127 18 249 0
122 -4 187 -18 249 -59 273 -167 473 -361 666 -190 190 -383 297 -645 356 -98
22 -340 33 -438 19z m438 -49 c303 -69 557 -233 744 -481 116 -154 191 -319
232 -510 26 -119 26 -381 0 -500 -95 -442 -408 -801 -826 -948 -150 -52 -238
-66 -420 -66 -182 0 -270 14 -420 66 -358 126 -652 420 -778 778 -52 150 -66
238 -66 420 0 182 14 270 66 420 146 416 516 739 943 823 120 24 138 26 295
21 95 -2 175 -10 230 -23z"/>
<path d="M734 2203 c4 -10 98 -174 208 -366 178 -308 204 -348 222 -343 12 3
46 12 76 20 74 22 127 20 206 -6 56 -18 67 -19 75 -7 27 42 409 707 409 713 0
3 -270 6 -601 6 -566 0 -601 -1 -595 -17z"/>
<path d="M1283 1400 c-59 -12 -96 -34 -135 -80 -62 -72 -75 -168 -34 -255 85
-184 336 -187 429 -5 25 47 28 64 24 115 -11 153 -138 253 -284 225z"/>
<path d="M573 712 c117 -203 219 -379 228 -392 15 -23 19 -17 172 249 l158
272 -43 42 c-49 47 -78 101 -85 158 l-6 39 -318 0 -318 0 212 -368z"/>
<path d="M1644 1043 c-15 -72 -40 -121 -85 -166 l-48 -49 152 -265 c84 -147
156 -266 162 -266 8 0 270 444 423 716 l32 57 -315 0 -315 0 -6 -27z"/>
</g>
</svg>
