<svg xmlns="http://www.w3.org/2000/svg" width="1440" height="560" preserveAspectRatio="none"><g mask="url(&quot;#a&quot;)" fill="none" stroke="rgba(179, 184, 189, 0.26)" stroke-width="2"><path d="M560.02 623.79c177.17-36.18 254.7-490.51 529.1-493.16 274.39-2.65 387.58 198.22 529.09 201.6"/><path d="M326.82 590.72c156.17-2.13 277.93-178.33 596.52-185.67 318.58-7.34 433.61-257.44 596.51-263.2"/><path d="M518.4 572.69c105.92-2.54 196.93-151 395.94-151.11 199.01-.11 197.97 70 395.94 70s295.42-69.73 395.94-70"/><path d="M756.9 598.09c100.55-26.15 44.29-288.71 285.57-301.92 241.27-13.21 423.78-144.46 571.13-145.6"/><path d="M88.89 609.09c210.96-22.57 342.45-480.22 698.78-481.59 356.34-1.37 516.98 199.6 698.79 201.6"/></g><defs><mask id="a"><path fill="#fff" d="M0 0h1440v560H0z"/></mask></defs></svg>