<svg clip-rule="evenodd" fill-rule="evenodd" stroke-linecap="round" stroke-linejoin="round" stroke-miterlimit="1.5" viewBox="0 0 287 250" xmlns="http://www.w3.org/2000/svg"><path d="m0 0h286.289v249.785h-286.289z" fill="none"/><path d="m250.123 62.996c0-13.806-11.209-25.016-25.016-25.016h-163.925c-13.807 0-25.016 11.21-25.016 25.016v123.471c0 13.807 11.209 25.016 25.016 25.016h163.925c13.807 0 25.016-11.209 25.016-25.016z" fill="#fff" stroke="#525252" stroke-width="10"/><path d="m114.761 105.349h-11.744l-18.574-32.339-.209.07v32.269h-11.813v-50.739h11.813l18.574 32.339.209-.07v-32.269h11.744z" fill="#16a34a" fill-rule="nonzero"/><path d="m164.698 84.545c0 6.249-1.981 11.401-5.942 15.455s-9.136 6.081-15.525 6.081c-6.435 0-11.65-2.027-15.646-6.081s-5.994-9.206-5.994-15.455v-9.13c0-6.227 1.992-11.372 5.976-15.438 3.985-4.066 9.183-6.098 15.595-6.098 6.365 0 11.546 2.032 15.542 6.098s5.994 9.211 5.994 15.438zm-11.744-9.2c0-3.624-.854-6.598-2.561-8.921-1.708-2.323-4.118-3.485-7.231-3.485-3.183 0-5.617 1.156-7.301 3.467-1.684 2.312-2.526 5.291-2.526 8.939v9.2c0 3.67.853 6.667 2.561 8.99 1.707 2.324 4.153 3.485 7.335 3.485 3.09 0 5.483-1.161 7.179-3.485 1.696-2.323 2.544-5.32 2.544-8.99z" fill="#16a34a" fill-rule="nonzero"/><path d="m213.868 105.349h-11.744l-18.574-32.339-.209.07v32.269h-11.813v-50.739h11.813l18.574 32.339.209-.07v-32.269h11.744z" fill="#16a34a" fill-rule="nonzero"/><path d="m70.08 162.143v-50.738h17.424c6.296 0 11.209 1.167 14.74 3.502 3.532 2.335 5.297 5.814 5.297 10.437 0 2.416-.569 4.565-1.707 6.447-1.139 1.881-2.893 3.299-5.262 4.251 2.973.674 5.169 2.027 6.586 4.06s2.126 4.373 2.126 7.022c0 4.948-1.661 8.688-4.984 11.221-3.322 2.532-8.084 3.798-14.287 3.798zm11.813-21.78v12.72h8.12c2.509 0 4.391-.494 5.645-1.481 1.255-.988 1.882-2.504 1.882-4.548 0-2.207-.54-3.874-1.621-5.001-1.08-1.126-2.828-1.69-5.244-1.69zm0-7.806h5.855c2.671-.046 4.669-.563 5.993-1.55 1.325-.988 1.987-2.434 1.987-4.339 0-2.161-.674-3.735-2.021-4.722-1.348-.987-3.415-1.481-6.203-1.481h-5.611z" fill="#16a34a" fill-rule="nonzero"/><path d="m216.209 120.465h-13.382v41.678h-11.813v-41.678h-13.277v-9.06h38.472z" fill="#16a34a" fill-rule="nonzero"/><path d="m111.799 136.774v12.685c0 1.754 1.417 3.171 3.171 3.171h3.171v-19.027h-3.171c-1.754 0-3.171 1.417-3.171 3.171zm45.981-15.856h-11.099v-6.342c0-1.754-1.417-3.171-3.171-3.171s-3.171 1.417-3.171 3.171v6.342h-11.099c-4.38 0-7.928 3.548-7.928 7.928v26.955c0 3.498 2.844 6.342 6.342 6.342h31.712c3.498 0 6.342-2.844 6.342-6.342v-26.955c0-4.38-3.547-7.928-7.928-7.928zm-20.612 31.712h-6.342v-3.171h6.342zm-3.171-11.892c-2.19 0-3.964-1.774-3.964-3.964s1.774-3.964 3.964-3.964 3.964 1.774 3.964 3.964-1.774 3.964-3.964 3.964zm12.684 11.892h-6.342v-3.171h6.342zm9.514 0h-6.342v-3.171h6.342zm-3.171-11.892c-2.19 0-3.964-1.774-3.964-3.964s1.774-3.964 3.964-3.964 3.964 1.774 3.964 3.964-1.774 3.964-3.964 3.964zm19.027-7.135h-3.172v19.027h3.172c1.754 0 3.171-1.417 3.171-3.171v-12.685c0-1.754-1.417-3.171-3.171-3.171z" fill="#16a34a" fill-rule="nonzero"/><path d="m250.123 167.69-213.957.232v25.084c0 8.819 7.138 15.974 15.957 15.993 39.532.089 141.692.319 181.643.408 4.335.01 8.495-1.705 11.564-4.767 3.068-3.062 4.793-7.218 4.793-11.553z" fill="#525252"/><g fill="#fff"><path d="m85.449 193.252v8.677h-5.895v-25.318h10.277c3.002 0 5.384.768 7.146 2.304 1.763 1.536 2.644 3.545 2.644 6.026 0 2.492-.881 4.5-2.644 6.025-1.762 1.524-4.144 2.286-7.146 2.286zm0-4.521h4.382c1.275 0 2.246-.35 2.912-1.052.667-.701 1-1.602 1-2.704 0-1.124-.333-2.046-1-2.764-.666-.719-1.637-1.079-2.912-1.079h-4.382z" fill-rule="nonzero"/><path d="m102.872 174.803h5.895v27.126h-5.895z" fill-rule="nonzero"/><path d="m120.956 202.294c-2.77 0-4.981-.869-6.633-2.608s-2.478-3.918-2.478-6.538v-.661c0-2.863.75-5.202 2.252-7.016 1.501-1.814 3.648-2.716 6.442-2.704 2.55 0 4.55.765 5.999 2.295 1.449 1.531 2.174 3.606 2.174 6.225v3.078h-10.746l-.035.105c.127.962.521 1.753 1.182 2.373s1.542.93 2.643.93c1.113 0 2.003-.087 2.669-.26.667-.174 1.51-.476 2.53-.905l1.392 3.582c-.823.603-1.887 1.105-3.191 1.505-1.304.399-2.704.599-4.2.599zm-.417-15.006c-.846 0-1.481.301-1.904.904s-.681 1.409-.774 2.417l.052.087h5.06v-.452c0-.95-.197-1.681-.591-2.191s-1.008-.765-1.843-.765z" fill-rule="nonzero"/><path d="m130.416 192.557c0-2.933.64-5.298 1.921-7.095s3.087-2.695 5.417-2.695c.869 0 1.655.2 2.356.6s1.33.971 1.887 1.713v-10.277h5.877v27.126h-5.095l-.417-2.312c-.58.869-1.255 1.533-2.026 1.991s-1.643.686-2.617.686c-2.318 0-4.115-.857-5.39-2.573-1.276-1.716-1.913-3.982-1.913-6.799zm5.877.365c0 1.53.223 2.721.67 3.573.446.852 1.197 1.278 2.251 1.278.615 0 1.157-.113 1.626-.339.47-.226.855-.559 1.157-1v-7.598c-.302-.499-.684-.881-1.148-1.148s-.997-.4-1.6-.4c-1.043 0-1.797.481-2.26 1.443-.464.962-.696 2.238-.696 3.826z" fill-rule="nonzero"/><path d="m150.43 192.557c0-2.933.638-5.298 1.913-7.095s3.078-2.695 5.408-2.695c.997 0 1.872.235 2.625.704.754.47 1.403 1.139 1.948 2.009l.4-2.365h5.147v18.084c0 2.516-.864 4.533-2.591 6.051-1.727 1.519-4.052 2.278-6.973 2.278-.974 0-1.994-.133-3.06-.4-1.067-.266-2.081-.626-3.043-1.078l.956-4.347c.858.371 1.675.646 2.452.826s1.663.269 2.66.269c1.206 0 2.128-.324 2.765-.973.638-.65.957-1.536.957-2.661v-.956c-.534.684-1.154 1.203-1.861 1.556-.707.354-1.513.53-2.417.53-2.319 0-4.112-.857-5.382-2.573-1.269-1.716-1.904-3.982-1.904-6.799zm5.86.365c0 1.53.223 2.721.67 3.573.446.852 1.196 1.278 2.251 1.278.638 0 1.186-.098 1.644-.295s.837-.499 1.139-.904v-7.895c-.29-.44-.664-.782-1.122-1.026-.458-.243-1-.365-1.626-.365-1.043 0-1.797.481-2.26 1.443-.464.962-.696 2.238-.696 3.826z" fill-rule="nonzero"/><path d="m179.817 202.294c-2.771 0-4.982-.869-6.634-2.608s-2.478-3.918-2.478-6.538v-.661c0-2.863.751-5.202 2.252-7.016s3.649-2.716 6.443-2.704c2.55 0 4.55.765 5.999 2.295 1.449 1.531 2.173 3.606 2.173 6.225v3.078h-10.746l-.035.105c.128.962.522 1.753 1.183 2.373s1.542.93 2.643.93c1.113 0 2.002-.087 2.669-.26.667-.174 1.51-.476 2.53-.905l1.391 3.582c-.823.603-1.887 1.105-3.191 1.505-1.304.399-2.704.599-4.199.599zm-.417-15.006c-.847 0-1.481.301-1.904.904-.424.603-.682 1.409-.774 2.417l.052.087h5.06v-.452c0-.95-.197-1.681-.591-2.191s-1.009-.765-1.843-.765z" fill-rule="nonzero"/><path d="m189.276 192.557c0-2.933.641-5.298 1.922-7.095s3.086-2.695 5.416-2.695c.87 0 1.655.2 2.357.6.701.4 1.33.971 1.886 1.713v-10.277h5.878v27.126h-5.095l-.418-2.312c-.579.869-1.255 1.533-2.025 1.991-.771.458-1.644.686-2.617.686-2.319 0-4.116-.857-5.391-2.573s-1.913-3.982-1.913-6.799zm5.878.365c0 1.53.223 2.721.669 3.573s1.197 1.278 2.252 1.278c.614 0 1.156-.113 1.626-.339.469-.226.855-.559 1.156-1v-7.598c-.301-.499-.684-.881-1.147-1.148-.464-.267-.997-.4-1.6-.4-1.044 0-1.797.481-2.261 1.443-.463.962-.695 2.238-.695 3.826z" fill-rule="nonzero"/></g></svg>